<svg width="1698" height="519" viewBox="0 0 1698 519" fill="none" xmlns="http://www.w3.org/2000/svg">
<path d="M0 74.0016V27.4775H46.3346V74.0016H0ZM0 425.84V123.433H46.3346V425.84H0Z" fill="black"/>
<path d="M1651.67 425.841V18.7554H1698V425.841H1651.67Z" fill="black"/>
<path d="M1500.94 425.84C1487.04 425.84 1474.11 422.351 1462.14 415.372C1450.55 408.394 1441.29 398.895 1434.34 386.876C1427.77 374.858 1424.49 361.288 1424.49 346.168V315.927C1424.49 297.705 1428.93 282.391 1437.81 269.985C1447.08 257.578 1458.47 248.855 1471.98 243.815L1543.8 217.064V189.731C1543.8 180.426 1540.91 172.866 1535.11 167.05C1529.71 160.847 1522.57 157.746 1513.68 157.746H1448.24V123.434H1517.74C1538.98 123.434 1555.77 129.831 1568.13 142.625C1580.87 155.032 1587.24 172.09 1587.24 193.802V425.84H1500.94ZM1543.8 390.366V253.701L1492.83 272.893C1482.79 276.77 1475.65 282.004 1471.4 288.594C1467.54 295.185 1465.61 305.653 1465.61 319.998V352.565C1465.61 363.033 1469.47 371.95 1477.2 379.316C1484.92 386.683 1494.19 390.366 1505 390.366H1543.8Z" fill="black"/>
<path d="M1369.68 425.84C1348.45 425.84 1331.65 419.443 1319.3 406.649C1306.94 393.855 1300.76 376.602 1300.76 354.891V158.327H1266.01V123.434H1300.76V35.6199L1347.1 18.1733V123.434H1393.43V158.327H1347.1V358.962C1347.1 368.267 1349.61 376.021 1354.63 382.224C1360.03 388.04 1367.17 390.947 1376.06 390.947H1393.43V425.84H1369.68Z" fill="black"/>
<path d="M1169.75 74.0021V27.478H1216.09V74.0021H1169.75ZM1169.75 425.84V123.434H1216.09V425.84H1169.75Z" fill="black"/>
<path d="M970.665 483.995H1030.32C1039.2 483.995 1046.15 480.894 1051.17 474.691C1056.58 468.875 1059.28 461.315 1059.28 452.01V426.422H1011.21C989.971 426.422 972.016 419.443 957.343 405.486C942.671 391.529 935.334 374.082 935.334 353.147V196.709C935.334 175.774 942.671 158.327 957.343 144.37C972.402 130.413 990.55 123.434 1011.79 123.434H1106.19V447.939C1106.19 469.651 1100.21 486.903 1088.24 499.697C1076.65 512.491 1060.24 518.888 1039.01 518.888H970.665V483.995ZM1059.86 391.529V158.327H1021.05C1010.24 158.327 1000.98 162.01 993.253 169.377C985.53 176.743 981.669 185.854 981.669 196.709V353.147C981.669 364.002 985.53 373.113 993.253 380.479C1000.98 387.846 1010.24 391.529 1021.05 391.529H1059.86Z" fill="black"/>
<path d="M830.39 74.0021V27.478H876.724V74.0021H830.39ZM830.39 425.84V123.434H876.724V425.84H830.39Z" fill="black"/>
<path d="M670.983 425.841C646.657 425.841 626.965 418.668 611.906 404.323C596.847 389.978 589.318 370.787 589.318 346.75V201.944C589.318 185.273 593.758 171.122 602.639 159.491C611.906 147.86 623.297 139.912 636.811 135.647L714.421 108.314V18.7554H760.756V425.841H670.983ZM714.421 390.948V146.697L662.874 164.143C652.835 167.245 645.692 172.285 641.444 179.263C637.583 185.854 635.652 196.516 635.652 211.249V346.75C635.652 360.707 639.707 371.563 647.815 379.317C655.924 387.071 666.928 390.948 680.829 390.948H714.421Z" fill="black"/>
<path fill-rule="evenodd" clip-rule="evenodd" d="M429.862 14.5996C492.337 14.5996 542.983 65.7266 542.983 128.795C542.983 312.029 325.79 433.316 325.79 433.316C325.79 433.316 108.597 312.029 108.597 128.795C108.597 65.7266 159.243 14.5996 221.718 14.5996C268.43 14.5996 308.528 43.1809 325.79 83.9649C343.052 43.1809 383.15 14.5996 429.862 14.5996ZM405.746 78.691C453.788 78.691 492.734 115.864 492.734 161.719C492.734 294.942 325.718 383.126 325.718 383.126C325.718 383.126 158.702 294.942 158.702 161.719C158.702 115.864 197.647 78.691 245.689 78.691C281.609 78.691 312.444 113.13 325.718 142.783C338.991 113.13 369.826 78.691 405.746 78.691Z" fill="url(#paint0_linear_1818_177)"/>
<defs>
<linearGradient id="paint0_linear_1818_177" x1="161.447" y1="41.9556" x2="526.953" y2="439.197" gradientUnits="userSpaceOnUse">
<stop stop-color="#C084FC"/>
<stop offset="1" stop-color="#1CC0D6"/>
</linearGradient>
</defs>
</svg>
